<?xml version="1.0" standalone="no"?>
<!DOCTYPE svg PUBLIC "-//W3C//DTD SVG 20010904//EN"
 "http://www.w3.org/TR/2001/REC-SVG-20010904/DTD/svg10.dtd">
<svg version="1.0" xmlns="http://www.w3.org/2000/svg"
 width="172.000000pt" height="172.000000pt" viewBox="0 0 172.000000 172.000000"
 preserveAspectRatio="xMidYMid meet">
<metadata>
Created by potrace 1.14, written by Peter Selinger 2001-2017
</metadata>
<g transform="translate(0.000000,172.000000) scale(0.100000,-0.100000)"
fill="#000000" stroke="none">
<path d="M1475 1500 c-77 -16 -156 -31 -175 -34 -19 -2 -55 -9 -80 -15 -25 -5
-63 -12 -85 -16 -47 -7 -267 -49 -345 -67 -30 -6 -58 -12 -62 -12 -9 -1 -69
-55 -268 -237 -58 -53 -118 -109 -135 -124 -274 -250 -315 -290 -315 -309 0
-31 10 -31 217 -1 11 2 30 6 41 9 15 5 21 1 26 -16 10 -37 7 -97 -6 -117 -9
-15 -8 -24 5 -45 20 -29 48 -34 71 -10 21 21 20 49 -3 82 -23 32 -36 108 -20
117 5 4 20 8 32 9 12 2 45 6 74 10 l51 8 57 -109 c48 -91 56 -116 56 -159 -1
-75 19 -96 95 -100 33 -1 78 1 99 6 94 21 94 21 101 -8 33 -145 74 -212 130
-212 47 0 109 76 138 171 27 85 25 84 91 64 77 -22 174 -26 201 -9 45 30 49
75 13 141 -10 17 -15 40 -13 51 7 23 -22 54 -45 50 -9 -2 -24 7 -35 20 l-19
24 51 51 c93 96 119 182 63 214 -21 12 -44 48 -82 125 l-53 108 59 52 c127
111 287 278 283 295 -5 26 -54 25 -213 -7z m-2 -589 c38 -31 13 -96 -68 -180
-40 -41 -57 -52 -71 -47 -16 6 -13 12 24 49 59 59 83 89 76 96 -3 3 -10 -3
-16 -13 -13 -24 -95 -106 -105 -106 -4 0 -22 10 -40 23 -30 20 -33 27 -33 72
l0 51 45 12 c25 7 72 12 104 12 56 0 59 -1 55 -22 -4 -21 -4 -21 5 -3 20 44
-34 50 -181 20 -28 -5 -41 4 -30 22 18 29 204 40 235 14z m-263 -43 c-1 -13 2
-38 6 -55 5 -26 3 -33 -9 -33 -21 0 -32 37 -17 55 9 11 9 15 1 15 -6 0 -11 9
-11 20 0 11 7 20 15 20 9 0 15 -9 15 -22z m-52 -24 c-10 -10 -23 -14 -37 -9
-29 9 -26 19 7 31 34 13 52 0 30 -22z m-79 -35 c-14 -8 -39 -1 -39 11 0 14 24
18 38 7 10 -8 10 -12 1 -18z m-46 -6 c6 -5 -45 -43 -58 -43 -10 0 -5 26 7 38
13 13 41 16 51 5z m107 -8 c17 -9 30 -22 30 -31 0 -8 6 -14 13 -13 27 3 37 -2
37 -21 0 -21 -14 -27 -24 -11 -3 5 -31 23 -63 41 -42 24 -53 34 -42 41 18 11
15 12 49 -6z m23 -75 c7 -10 21 -19 31 -21 27 -6 31 -61 5 -77 -18 -11 -19 -9
-19 30 0 52 -8 46 -11 -9 -2 -33 -9 -47 -31 -63 -55 -40 -72 -42 -125 -8 -54
34 -63 45 -56 65 3 7 0 13 -7 13 -6 0 -8 -5 -4 -11 4 -7 -1 -10 -12 -7 -26 5
-31 60 -7 84 17 17 18 16 24 -22 l6 -39 2 42 c1 40 3 43 52 67 l50 24 45 -25
c24 -14 50 -33 57 -43z m-209 35 c-9 -22 -34 -27 -34 -6 0 19 18 32 32 24 4
-2 5 -10 2 -18z m-61 -36 c-7 -25 -30 -36 -46 -20 -8 8 -6 15 9 26 28 21 43
19 37 -6z m381 -18 c15 -17 16 -19 1 -25 -22 -8 -35 1 -35 25 0 24 12 24 34 0z
m-434 -27 c0 -9 -7 -14 -17 -12 -25 5 -28 28 -4 28 12 0 21 -6 21 -16z m480
-20 c0 -16 -9 -18 -30 -4 -13 9 -13 11 0 19 17 12 30 5 30 -15z m-442 4 c14
-14 16 -48 4 -48 -5 0 -18 8 -30 18 -16 14 -18 22 -10 30 15 15 21 15 36 0z
m-83 -9 c4 -5 -8 -25 -27 -43 -49 -49 -62 -67 -87 -120 -26 -53 -21 -67 25
-68 68 -1 104 3 104 12 0 5 -6 7 -12 5 -31 -10 -100 -11 -113 -1 -13 10 -12
17 6 54 12 24 43 67 69 95 l47 51 37 -24 c41 -28 49 -47 44 -110 -2 -33 -7
-44 -21 -46 -11 -1 -22 -5 -25 -9 -4 -3 5 -4 20 -1 37 6 46 -21 12 -34 -89
-34 -216 -39 -235 -9 -27 43 9 130 89 214 45 47 56 52 67 34z m481 -11 c4 -6
2 -14 -4 -16 -7 -2 -10 -8 -6 -13 3 -5 -2 -9 -10 -9 -9 0 -16 8 -16 18 0 31
22 43 36 20z m94 -16 c8 -9 16 -34 16 -55 1 -23 9 -46 22 -60 11 -12 21 -26
21 -32 0 -5 4 -10 11 -12 6 -1 7 0 0 4 -5 2 -8 8 -5 13 3 4 -2 13 -10 20 -21
17 -19 25 6 27 15 1 25 -9 39 -39 44 -98 -38 -131 -204 -83 -44 13 -56 21 -53
33 3 18 6 18 47 8 17 -4 14 -1 -9 10 -32 14 -33 17 -28 55 6 46 19 64 60 85
28 15 31 14 60 -13 28 -25 20 -8 -11 26 -11 12 -11 15 0 22 18 12 22 11 38 -9z
m-430 -23 c14 -24 9 -32 -14 -23 -17 7 -23 44 -6 44 5 0 14 -9 20 -21z m266
-24 c-3 -8 -10 -15 -16 -15 -14 0 -12 37 3 43 15 5 21 -8 13 -28z m-167 -40
c4 -18 -23 -16 -56 5 -22 13 -31 25 -27 35 5 13 12 12 44 -8 20 -12 38 -26 39
-32z m124 25 c-7 -26 -38 -43 -64 -35 -19 6 -17 9 17 31 48 29 54 29 47 4z
m-221 -50 c4 -24 1 -30 -14 -30 -14 0 -18 8 -18 41 0 34 2 39 14 30 8 -6 16
-25 18 -41z m145 -11 c-16 -10 -47 -2 -47 11 0 14 24 18 44 7 17 -8 17 -10 3
-18z m113 6 c0 -22 -3 -24 -20 -15 -21 11 -17 40 6 40 8 0 14 -10 14 -25z
m-215 5 c3 -5 -1 -10 -9 -10 -8 0 -18 5 -21 10 -3 6 1 10 9 10 8 0 18 -4 21
-10z m41 -38 c-3 -6 -20 -15 -37 -21 -28 -10 -30 -9 -27 11 2 14 13 25 28 29
27 7 46 -3 36 -19z m124 3 c0 -16 -35 -21 -44 -6 -8 12 4 21 26 21 10 0 18 -7
18 -15z m40 -21 c0 -8 -7 -14 -15 -14 -8 0 -15 9 -15 20 0 13 5 18 15 14 8 -4
15 -12 15 -20z m-251 -20 c-12 -14 -14 -14 -20 3 -4 12 -1 20 10 24 21 8 26
-7 10 -27z m156 16 c4 -6 10 -8 15 -5 22 13 27 -30 10 -79 -34 -98 -62 -146
-86 -146 -12 0 -46 73 -58 124 -4 15 -9 26 -12 23 -8 -8 27 -111 47 -138 16
-21 20 -22 42 -10 24 13 43 48 77 146 16 47 44 69 46 35 1 -37 -55 -162 -89
-197 -71 -75 -128 -15 -163 169 -6 33 13 46 31 22 14 -18 14 -18 15 2 0 25 13
37 55 52 39 14 62 14 70 2z"/>
<path d="M1290 440 c0 -5 5 -10 11 -10 5 0 7 5 4 10 -3 6 -8 10 -11 10 -2 0
-4 -4 -4 -10z"/>
<path d="M1434 441 c-5 -5 -25 -11 -44 -14 -34 -4 -34 -4 7 -5 23 -1 45 3 48
9 9 14 1 21 -11 10z"/>
<path d="M1326 428 c3 -4 9 -8 15 -8 5 0 9 4 9 8 0 5 -7 9 -15 9 -8 0 -12 -4
-9 -9z"/>
</g>
</svg>
